<svg xmlns="http://www.w3.org/2000/svg" viewBox="0 0 240 400" width="240" height="400">
  <defs>
    <radialGradient id="halo_blz" cx="0.5" cy="0.42" r="0.62">
      <stop offset="0" stop-color="#ffffff" stop-opacity="0.16"/>
      <stop offset="1" stop-color="#ffffff" stop-opacity="0"/>
    </radialGradient>
    <linearGradient id="lapela_blz" x1="0" y1="0" x2="0" y2="1">
      <stop offset="0" stop-color="#ffffff" stop-opacity="0.10"/>
      <stop offset="1" stop-color="#000000" stop-opacity="0.12"/>
    </linearGradient>
  </defs>

  <ellipse data-hero-layer="back" cx="120" cy="210" rx="112" ry="150" fill="url(#halo_blz)"/>
  <ellipse data-hero-layer="shadow" cx="120" cy="386" rx="78" ry="9" fill="#000000" opacity="0.28"/>

  <path data-hero-layer="base" data-channel="roupa" data-material="wool"
    d="M120 118 C 92 118 74 128 66 150 L 44 250 L 62 262 L 74 214 L 74 372 L 166 372 L 166 214 L 178 262 L 196 250 L 174 150 C 166 128 148 118 120 118 Z"/>

  <path data-hero-layer="mid" data-channel="roupa" data-tone="escuro"
    d="M120 132 L 104 166 L 116 320 L 124 320 L 136 166 Z"/>

  <path data-hero-layer="detail" data-channel="destaque" data-tone="claro" fill="url(#lapela_blz)"
    d="M120 128 L 96 150 L 112 210 L 120 150 L 128 210 L 144 150 Z"/>

  <path data-hero-layer="detail" data-channel="roupa" data-tone="profundo" data-paint="stroke"
    fill="none" stroke-width="2" d="M120 168 L 120 360"/>

  <circle data-hero-layer="detail" data-channel="destaque" data-tone="brilho" cx="120" cy="250" r="3"/>
  <circle data-hero-layer="detail" data-channel="destaque" data-tone="brilho" cx="120" cy="290" r="3"/>

  <path data-hero-layer="front" fill="#ffffff" opacity="0.18" d="M78 132 q 42 -22 84 0"/>

  <g data-hero="anchors">
    <circle data-anchor="gola" cx="120" cy="128"/>
    <circle data-anchor="barra" cx="120" cy="372"/>
    <circle data-anchor="ombroE" cx="71" cy="150"/>
    <circle data-anchor="ombroD" cx="169" cy="150"/>
  </g>
</svg>
